<svg xmlns="http://www.w3.org/2000/svg" viewBox="0 0 50 50">
  <path d="M30.5 29.5v6.9c0 .4-.3.7-.7.7-.1 0-.3 0-.4-.1l-9-3.7c-.3-.1-.5-.4-.5-.7V18.1c0-.6.6-1 1.2-.7l9 3.7c.3.1.4.4.4.7v7.7zm-19.8 3.8c-.2.1-.4.1-.5 0-.2-.1-.3-.3-.3-.5V16.3c0-.3.2-.5.4-.6l13-5.5c.5-.2 1 .2 1 .7v5.5c0 .3-.2.5-.4.6l-8.5 3.6c-.5.2-.7.7-.7 1.2v5.3c0 .6.6 1 1.2.7l7.3-3.1c.3-.1.5-.4.5-.7v-2.4c0-.6.6-1 1.2-.7l4.4 1.8c.3.1.5.4.5.7v3c0 .3-.2.5-.4.6l-13.7 5.8zm29.8 1.3c-.2.1-.4.1-.6 0l-7.2-3c-.3-.1-.5-.4-.5-.7v-2.4c0-.6.6-1 1.2-.7l6.5 2.7c.5.2 1-.2 1-.7V18.3c0-.3-.2-.5-.4-.6l-12.8-5.4c-.3-.1-.5-.4-.5-.7V6.1c0-.5.5-.9 1-.7l13.8 5.8c.3.1.4.4.4.6v21.5c0 .3-.2.5-.4.6-.2.1-.3.2-.5.2z" fill="currentColor"/>
</svg>
